<mxfile host="app.diagrams.net" agent="Mozilla/5.0 (Windows NT 10.0; Win64; x64) AppleWebKit/537.36 (KHTML, like Gecko) Chrome/139.0.0.0 Safari/537.36" version="27.1.5">
  <diagram name="PÃ¡gina-1" id="Aslz4cG37kiKPqf3L19y">
    <mxGraphModel grid="1" page="1" gridSize="10" guides="1" tooltips="1" connect="1" arrows="1" fold="1" pageScale="1" pageWidth="827" pageHeight="1169" math="0" shadow="0">
      <root>
        <mxCell id="0" />
        <mxCell id="1" parent="0" />
        <mxCell id="UP7B-NuxRRa60GsuRa7K-8" style="edgeStyle=orthogonalEdgeStyle;rounded=0;orthogonalLoop=1;jettySize=auto;html=1;entryX=0.5;entryY=0;entryDx=0;entryDy=0;" edge="1" parent="1" source="UP7B-NuxRRa60GsuRa7K-2" target="UP7B-NuxRRa60GsuRa7K-5">
          <mxGeometry relative="1" as="geometry" />
        </mxCell>
        <mxCell id="UP7B-NuxRRa60GsuRa7K-2" value="COMPONENTE UI" style="rounded=1;whiteSpace=wrap;html=1;" vertex="1" parent="1">
          <mxGeometry x="80" y="90" width="120" height="60" as="geometry" />
        </mxCell>
        <mxCell id="UP7B-NuxRRa60GsuRa7K-7" style="rounded=0;orthogonalLoop=1;jettySize=auto;html=1;entryX=0.5;entryY=0;entryDx=0;entryDy=0;" edge="1" parent="1" source="UP7B-NuxRRa60GsuRa7K-3" target="UP7B-NuxRRa60GsuRa7K-6">
          <mxGeometry relative="1" as="geometry" />
        </mxCell>
        <mxCell id="UP7B-NuxRRa60GsuRa7K-3" value="REDUX STORE" style="rounded=1;whiteSpace=wrap;html=1;" vertex="1" parent="1">
          <mxGeometry x="280" y="90" width="120" height="60" as="geometry" />
        </mxCell>
        <mxCell id="UP7B-NuxRRa60GsuRa7K-15" style="edgeStyle=orthogonalEdgeStyle;rounded=0;orthogonalLoop=1;jettySize=auto;html=1;" edge="1" parent="1" source="UP7B-NuxRRa60GsuRa7K-4" target="UP7B-NuxRRa60GsuRa7K-14">
          <mxGeometry relative="1" as="geometry" />
        </mxCell>
        <mxCell id="UP7B-NuxRRa60GsuRa7K-4" value="API" style="rounded=1;whiteSpace=wrap;html=1;" vertex="1" parent="1">
          <mxGeometry x="630" y="90" width="120" height="60" as="geometry" />
        </mxCell>
        <mxCell id="UP7B-NuxRRa60GsuRa7K-5" value="COMPONENTE UI" style="rounded=1;whiteSpace=wrap;html=1;" vertex="1" parent="1">
          <mxGeometry x="80" y="290" width="120" height="60" as="geometry" />
        </mxCell>
        <mxCell id="UP7B-NuxRRa60GsuRa7K-6" value="REDUX STORE" style="rounded=1;whiteSpace=wrap;html=1;" vertex="1" parent="1">
          <mxGeometry x="280" y="290" width="120" height="60" as="geometry" />
        </mxCell>
        <mxCell id="UP7B-NuxRRa60GsuRa7K-10" value="" style="endArrow=classic;html=1;rounded=0;" edge="1" parent="1">
          <mxGeometry width="50" height="50" relative="1" as="geometry">
            <mxPoint x="140" y="200" as="sourcePoint" />
            <mxPoint x="340" y="200" as="targetPoint" />
          </mxGeometry>
        </mxCell>
        <mxCell id="UP7B-NuxRRa60GsuRa7K-11" value="DISPARA fetchMovies(params)" style="text;html=1;align=center;verticalAlign=middle;resizable=0;points=[];autosize=1;strokeColor=none;fillColor=none;" vertex="1" parent="1">
          <mxGeometry x="150" y="160" width="190" height="30" as="geometry" />
        </mxCell>
        <mxCell id="UP7B-NuxRRa60GsuRa7K-12" value="PETICION HTTPS" style="text;html=1;align=center;verticalAlign=middle;resizable=0;points=[];autosize=1;strokeColor=none;fillColor=none;" vertex="1" parent="1">
          <mxGeometry x="455" y="180" width="120" height="30" as="geometry" />
        </mxCell>
        <mxCell id="UP7B-NuxRRa60GsuRa7K-13" value="" style="endArrow=classic;html=1;rounded=0;" edge="1" parent="1">
          <mxGeometry width="50" height="50" relative="1" as="geometry">
            <mxPoint x="340" y="220" as="sourcePoint" />
            <mxPoint x="690" y="220" as="targetPoint" />
          </mxGeometry>
        </mxCell>
        <mxCell id="UP7B-NuxRRa60GsuRa7K-14" value="API" style="rounded=1;whiteSpace=wrap;html=1;" vertex="1" parent="1">
          <mxGeometry x="630" y="290" width="120" height="60" as="geometry" />
        </mxCell>
        <mxCell id="UP7B-NuxRRa60GsuRa7K-16" value="" style="endArrow=classic;html=1;rounded=0;" edge="1" parent="1">
          <mxGeometry width="50" height="50" relative="1" as="geometry">
            <mxPoint x="690" y="240" as="sourcePoint" />
            <mxPoint x="340" y="240" as="targetPoint" />
          </mxGeometry>
        </mxCell>
        <mxCell id="UP7B-NuxRRa60GsuRa7K-17" value="DEVUELVE DATOS" style="text;html=1;align=center;verticalAlign=middle;resizable=0;points=[];autosize=1;strokeColor=none;fillColor=none;" vertex="1" parent="1">
          <mxGeometry x="450" y="250" width="130" height="30" as="geometry" />
        </mxCell>
        <mxCell id="UP7B-NuxRRa60GsuRa7K-18" value="" style="endArrow=classic;html=1;rounded=0;" edge="1" parent="1">
          <mxGeometry width="50" height="50" relative="1" as="geometry">
            <mxPoint x="340" y="240" as="sourcePoint" />
            <mxPoint x="140" y="240" as="targetPoint" />
          </mxGeometry>
        </mxCell>
        <mxCell id="UP7B-NuxRRa60GsuRa7K-19" value="ACTUALIZO ESTADO" style="text;html=1;align=center;verticalAlign=middle;resizable=0;points=[];autosize=1;strokeColor=none;fillColor=none;" vertex="1" parent="1">
          <mxGeometry x="175" y="240" width="140" height="30" as="geometry" />
        </mxCell>
        <mxCell id="UP7B-NuxRRa60GsuRa7K-20" value="Re renderizo resultados" style="text;html=1;align=center;verticalAlign=middle;whiteSpace=wrap;rounded=0;" vertex="1" parent="1">
          <mxGeometry x="10" y="250" width="120" height="30" as="geometry" />
        </mxCell>
        <mxCell id="UP7B-NuxRRa60GsuRa7K-21" style="edgeStyle=orthogonalEdgeStyle;rounded=0;orthogonalLoop=1;jettySize=auto;html=1;" edge="1" parent="1" source="UP7B-NuxRRa60GsuRa7K-20" target="UP7B-NuxRRa60GsuRa7K-20">
          <mxGeometry relative="1" as="geometry" />
        </mxCell>
      </root>
    </mxGraphModel>
  </diagram>
</mxfile>
